<?xml version="1.0" encoding="UTF-8"?><svg id="Layer_1" xmlns="http://www.w3.org/2000/svg" viewBox="0 0 326.6 326.6"><path d="m0,313V13.6c.3-.4.8-.8.9-1.3C3.1,6.2,7.2,2.3,13.5.6c.2,0,.3-.4.5-.6h298.4c.2.2.3.6.5.6,6.9,1.6,11.1,6,13.1,12.6,0,.3.4.4.6.7v299.1c-.3.4-.7.7-.8,1.1-1.8,5.5-5.6,9.2-10.9,11.4-.7.3-1.3.7-1.9,1h-87.4c0-.1,0-.2,0-.4,0-.7,0-1.5,0-2.2v-124.1h42.2c2.1-16.4,4.2-32.7,6.4-49.1h-48.5v-1.2c0-10.6,0-21.1,0-31.6,0-2.6.3-5.2.7-7.7.9-5.9,4.1-10.1,9.6-12.5,4.4-1.9,9-2.3,13.7-2.4,8.2-.1,16.3,0,24.5,0h1.8v-44.1c-5.9-.4-11.8-.8-17.7-1.2-2.4-.1-4.7-.3-7.1-.3-6.3,0-12.7,0-19,0-.2,0-.5,0-.7,0-.7.1-1.4.3-2.1.3-5.1.2-10.1,1.3-15,2.9-17.6,5.9-29.6,17.5-35.7,35.1-2.3,6.7-3.8,13.5-3.9,20.5-.2,13.4,0,26.9,0,40.3v2h-42.7v49.2h42.7v124.3c0,.7,0,1.5,0,2.2H13.6c-.5-.3-.9-.8-1.4-1-5.5-2-9.3-5.7-11.2-11.2-.2-.5-.6-1-1-1.4Z" fill="#fff"/><path d="m174.6,326.6c0-.7,0-1.5,0-2.2v-124.3h-42.7v-49.2h42.7v-2c0-13.4-.1-26.9,0-40.3.1-7,1.6-13.8,3.9-20.5,6.1-17.6,18.1-29.2,35.7-35.1,4.9-1.6,9.8-2.7,15-2.9.7,0,1.4-.2,2.1-.3.2,0,.5,0,.7,0,6.3,0,12.7,0,19,0,2.4,0,4.7.2,7.1.3,5.9.4,11.8.8,17.7,1.2v44.1h-1.8c-8.2,0-16.3,0-24.5,0-4.7,0-9.3.4-13.7,2.4-5.5,2.4-8.6,6.7-9.6,12.5-.4,2.5-.7,5.1-.7,7.7,0,10.6,0,21.1,0,31.6v1.2h48.5c-2.1,16.5-4.2,32.7-6.4,49.1h-42.2v124.1c0,.7,0,1.5,0,2.2,0,.1-.2.2-.3.4-16.9,0-33.8,0-50.7,0Z" fill="#874dff"/><path d="m225.2,326.6c0-.1.2-.2.3-.4,0,.1,0,.2,0,.4h-.3Z" fill="#dde1ee"/><path d="m232.1,49.7c-.2,0-.5,0-.7,0,.2,0,.4,0,.7,0Z" fill="#aebad7"/></svg>