<?xml version="1.0" encoding="utf-8"?>
<!-- Generator: Adobe Illustrator 27.7.0, SVG Export Plug-In . SVG Version: 6.00 Build 0)  -->
<svg version="1.1" id="Layer_1" xmlns="http://www.w3.org/2000/svg" xmlns:xlink="http://www.w3.org/1999/xlink" x="0px" y="0px"
	 viewBox="0 0 500 500" style="enable-background:new 0 0 500 500;" xml:space="preserve">
<style type="text/css">
	.st0{display:none;}
	.st1{display:inline;fill:#FFFFFF;}
	.st2{display:inline;fill:#874DFF;}
	.st3{display:inline;fill:#7FB2E3;}
	.st4{fill:#FFFFFF;}
</style>
<g class="st0">
	<path class="st1" d="M1064.6,426.7c-31.9,0-63.8,0.2-95.7-0.1c-10.8-0.1-21.4-1.9-31.5-6.4c-13.7-6.1-24.4-15.6-32-28.5
		c-3.7-6.3-6.1-13.1-7.8-20.3c-1.6-6.9-2-13.9-2.2-21c-0.1-5.5-0.3-11-0.3-16.5c0-57.8,0.1-115.6,0.1-173.4c0-5.3,0-10.6,0.2-15.8
		c0.6-11.8,2.5-23.3,8-33.8c9.1-17.2,22.8-29.1,41.7-34.6c7.7-2.3,15.5-3.2,23.4-3.2c41.9-0.3,83.9-0.6,125.8-0.7
		c25-0.1,50-0.2,75.1,0.3c9,0.2,18,0.4,26.8,2.7c19.7,5.2,34.6,16.5,44.4,34.4c3.8,7.1,6,14.8,7.3,22.7c0.7,4.6,0.9,9.3,1,14
		c0.3,16.8,0.8,33.7,0.8,50.5c0.1,47.2,0,94.3-0.1,141.5c0,7.9-0.6,15.8-1.1,23.6c-0.5,8.1-2.6,16-5.9,23.3
		c-6.7,14.9-17.4,26-32.1,33.3c-7.7,3.8-15.8,6.1-24.4,6.9c-4.5,0.4-9,0.8-13.5,0.9c-23.9,0.2-47.8,0.3-71.6,0.4
		c-12.2,0-24.3,0-36.5,0C1064.6,426.9,1064.6,426.8,1064.6,426.7z M1078.1,233.9c0-6.4,0-12.9,0-19.2c-13.7,0-27,0-40.3,0
		c0,47.3,0,94.4,0,141.6c14.3,0,28.5,0,42.8,0c0-1.2,0-2.1,0-3.1c0-23.9,0-47.8,0-71.7c0-4.1,0.7-8,2-11.9
		c3.7-11.1,13.6-18.1,26.4-17.9c4.2,0.1,8.5,1,12.4,2.2c5.1,1.7,8.9,5.3,11.3,10.2c2.5,4.9,3.4,10.3,3.4,15.8
		c0,24.5,0,49.1-0.1,73.6c0,0.9,0.1,1.8,0.1,2.7c14.4,0,28.6,0,42.8,0c0-0.7,0.1-1.1,0.1-1.6c0-30.1,0.1-60.1-0.1-90.2
		c0-3.9-0.7-7.9-1.9-11.6c-1.5-4.9-3.7-9.6-5.6-14.4c-2-4.9-5-9.1-8.9-12.6c-9.1-7.9-19.6-12.5-31.6-13.9
		c-6.8-0.8-13.6-0.3-20.1,1.3c-12.8,3.3-23.9,9.8-32.1,20.6C1078.6,233.9,1078.3,233.9,1078.1,233.9z M1013,356.4
		c0-47.5,0-94.6,0-141.8c-14.6,0-29.1,0-43.6,0c0,47.3,0,94.5,0,141.8C984,356.4,998.4,356.4,1013,356.4z M1016,168.3
		c0.8-15-11.5-24.2-22.8-25.2c-16.2-1.4-27.3,12.5-27.2,24.8c0.1,13.8,11.7,25.6,24.8,25.6C1003.8,193.6,1016.5,183.4,1016,168.3z"
		/>
	<path class="st2" d="M1078.8,233.9c8.2-10.7,19.2-17.3,32.1-20.6c6.5-1.7,13.3-2.1,20.1-1.3c12,1.4,22.5,6,31.6,13.9
		c4,3.5,7,7.6,8.9,12.6c1.9,4.8,4.1,9.5,5.6,14.4c1.1,3.7,1.8,7.7,1.9,11.6c0.2,30.1,0.1,60.1,0.1,90.2c0,0.5,0,1-0.1,1.6
		c-14.2,0-28.4,0-42.8,0c-0.1-0.9-0.1-1.8-0.1-2.7c0-24.5,0-49.1,0.1-73.6c0-5.5-0.9-10.8-3.4-15.8c-2.4-4.8-6.2-8.5-11.3-10.2
		c-4-1.3-8.3-2.2-12.4-2.2c-12.8-0.1-22.7,6.8-26.4,17.9c-1.3,3.9-2,7.8-2,11.9c0.1,23.9,0,47.8,0,71.7c0,1,0,1.9,0,3.1
		c-14.3,0-28.5,0-42.8,0c0-47.2,0-94.3,0-141.6c13.3,0,26.6,0,40.3,0c0,6.4,0,12.8,0,19.2c0.1,0.2,0.2,0.4,0.2,0.7
		C1078.5,234.4,1078.6,234.2,1078.8,233.9z"/>
	<path class="st2" d="M1013,356.4c-14.6,0-29,0-43.6,0c0-47.3,0-94.5,0-141.8c14.5,0,28.9,0,43.6,0C1013,261.8,1013,309,1013,356.4z
		"/>
	<path class="st2" d="M1016,168.3c0.5,15.1-12.2,25.2-25.3,25.2c-13.1,0-24.7-11.7-24.8-25.6c0-12.3,11.1-26.2,27.2-24.8
		C1004.5,144.1,1016.7,153.3,1016,168.3z"/>
	<path class="st3" d="M1078.8,233.9c-0.2,0.2-0.4,0.4-0.5,0.6c-0.1-0.2-0.2-0.4-0.2-0.7C1078.3,233.9,1078.6,233.9,1078.8,233.9z"/>
</g>
<g>
	<path class="st4" d="M62.9,238.4c0.5-3.1,0.9-6.2,1.5-9.3c2.2-10.9,3.9-22,7-32.7c5.4-18.3,14-35.2,24.7-51
		c8.2-12.1,17.4-23.4,28.3-33.3c12.6-11.5,26.4-21.3,41.5-29.4c17.9-9.5,36.8-15.7,56.5-19.6c15.8-3.1,32-3.1,47.9-2.2
		c23.7,1.4,46.6,7.1,68.2,17.3c16.5,7.8,31.7,17.6,45.5,29.5c17.6,15.2,31.7,33,43.1,53.4c9.6,17.2,16.3,35.4,20.1,54.6
		c2.1,10.4,2.4,21.2,3.1,31.8c0.4,6.3,0.6,12.7,0,19c-1,10.3-2.1,20.6-4.1,30.8c-2.9,15.3-8.4,29.8-15.4,43.7
		c-6.2,12.3-13.6,23.7-22.3,34.4c-4.7,5.7-9.1,11.8-14.5,16.6c-9.4,8.4-19.3,16.2-29.4,23.8c-13.6,10.2-29.2,16.7-45,22.6
		c-6.3,2.3-10.7,1.2-13.3-4.1c-1-2-0.9-4.6-0.9-6.9c-0.1-16.4,0.2-32.9-0.1-49.3c-0.3-11.1-1-22.3-8.1-31.8c-1.5-2.1-3.3-3.9-5.1-6
		c16.6-1.8,32.5-5.3,47.2-13.2c18.2-9.8,30.5-24.3,35.9-44.3c2.3-8.4,3.4-17.1,4.6-25.7c0.7-5.3,1.1-10.8,0.8-16.1
		c-0.9-16.8-5.7-32.2-17-45c-2.1-2.4-2.7-4.5-1.6-7.8c3.3-9.9,3.9-20.1,1.4-30.4c-1.1-4.4-2.2-8.8-3.3-13.2c-0.7-2.8-2.1-4-5.4-4.2
		c-9.5-0.4-17.9,3.4-26.1,7.2c-7.3,3.4-13.9,8.1-21.1,11.5c-2.5,1.2-6,0.7-8.9,0.3c-7.5-1-15-2.7-22.6-3.6
		c-7.2-0.9-14.4-1.8-21.6-1.4c-13.3,0.6-26.7,0.9-39.6,5.1c-5.1,1.6-9.2,0.2-13.4-2.6c-11.3-7.5-23.8-12.7-36.9-16.1
		c-2.7-0.7-5.8-0.3-8.7-0.1c-0.7,0-1.6,1.1-1.9,1.8c-3.6,10.1-6.4,20.4-5.4,31.2c0.5,5.4,2.3,10.8,3.2,16.2c0.3,1.6-0.2,3.7-1.1,4.9
		c-8.8,10.5-14.6,22.4-16.5,36c-0.7,5.4-1.6,10.9-1.5,16.3c0.6,19.7,4.1,38.7,14.4,55.8c5.9,9.7,14.3,17.1,24.2,22.9
		c12.3,7.2,25.8,11,39.7,13.5c3.1,0.6,6.3,0.6,10.3,1c-7.2,7.2-10.3,15.6-12.3,24.7c-0.4,1.6-3.7,3.3-5.9,3.7
		c-6.5,1.2-13.2,2.1-19.8,2.4c-11,0.6-19-5.5-25.6-13.4c-4.2-5-7.3-11-11.7-15.7c-6.4-6.8-14.5-10.9-24-11.7c-2-0.2-4.4,0-6.2,0.9
		c-0.9,0.4-1.5,3.4-0.9,4.2c1.7,2.5,3.8,5.2,6.4,6.5c8.6,4.6,13.4,12.3,17.8,20.3c2.6,4.7,4.5,9.8,7.1,14.5
		c5.6,10.1,14.9,15.1,25.8,17c7.2,1.2,14.6,1.5,22,1.5c4.7,0.1,9.3-1,14.4-1.6c0,7.8,0,15.4,0,22.9c0,4.3,0,8.6,0,12.9
		c0,6.9-6.4,11.6-13,9.4c-19.6-6.4-37.9-15.7-54.4-28.1c-14-10.5-26.2-23-37.1-36.9c-17.7-22.4-29.7-47.4-36.4-74.9
		c-2.1-8.7-2.6-17.8-3.9-26.6c-0.1-0.5-0.5-1-0.8-1.5C62.9,260.1,62.9,249.2,62.9,238.4z"/>
</g>
</svg>
