<?xml version="1.0" encoding="UTF-8"?><svg id="Layer_1" xmlns="http://www.w3.org/2000/svg" viewBox="0 0 413.7 412.6"><path d="m406.3,331.6c-4.3,15.3-11.5,29.2-22.8,40.7-5.1,5.2-10,10.6-15.7,15-5.8,4.4-12.3,8-18.8,11.2-9.7,4.8-20.1,8.1-30.8,9.9-8.6,1.4-17.3,2.4-26,2.8-11.8.6-23.6.6-35.3.7-32.9.3-65.8.4-98.7.6-5,0-9.9,0-14.9,0-15.8-.2-31.4-1.8-47-4.1-21.7-3.2-40.6-12.3-57.2-26.3-8.4-7.1-14.7-16-20.3-25.3-8.5-14.1-12.6-29.8-15.5-45.8-1-5.5-1.2-11.3-1.3-16.9-.5-23.2-.9-46.5-1.3-69.7C.3,211.4,0,198.4,0,185.4c0-14.6.1-29.2.7-43.7.4-11.2,1.7-22.4,2.4-33.5.9-13.7,4.5-26.8,9.3-39.6,3.5-9.5,8.9-18.1,15.5-25.6,5.7-6.5,11.6-13.1,18.7-18,8.3-5.8,17.7-10.3,27-14.3,11.7-5.1,24.2-7.3,37-8.1,12.2-.8,24.5-1.5,36.8-1.8C167,.2,186.8,0,206.7,0c14.6,0,29.2.3,43.7.6,11,.2,22.1.2,33.1.7,10.2.5,20.3,1.3,30.4,2.4,18.9,2,36.1,8.9,51.5,19.6,17,11.7,29.5,27.4,36.4,47,3.1,8.8,5.4,17.9,7.6,27,1.1,4.9,1.4,10,1.7,15,.6,9.9,1.1,19.8,1.6,29.7.1,0,.2,0,.4,0,0,17.7,0,35.4,0,53.1,0,7.3.5,14.7.5,22,0,11.7-.3,23.4-.6,35-.3,10.6-.6,21.2-1.2,31.8-.9,16-1.2,32.1-5.6,47.7M37.3,229c.7,22.2-1.6,48.7,2.4,75.1,1.5,9.8,3.6,19.5,7.6,28.6,4.4,9.8,11,18,19.5,24.5,6.5,5.1,13.3,10,21.5,12,8,1.9,16,3.8,24.1,4.8,10.3,1.3,20.7,2.4,31,2.5,29.2.1,58.3-.2,87.5-.5,15.1-.1,30.2-.4,45.3-.6,7.3-.1,14.7-.2,22-.6,14.1-.8,27.4-4.7,40-11,19.4-9.9,29.9-26.7,34.3-47.2,2.4-11.3,3-23,3.8-34.6.7-9,.8-18.2.7-27.2-.4-42.6,1.1-85.2-1.2-127.9-.6-10.5-1.4-20.9-3.6-31.2-5.5-26-21.6-42.5-45.8-51.8-11.4-4.4-23.4-5.4-35.4-6.3-7.8-.6-15.7-.7-23.5-.6-42.6.1-85.3.3-127.9.6-10.6,0-21.2.9-31.8,1.8-18.1,1.4-33.5,8.5-46.7,21.5-13.9,13.8-19.8,30.6-21.9,49.2-1,8.8-1,17.7-1.3,26.6-.3,13.1-.6,26.2-.7,39.4,0,16.3,0,32.7,0,53.2Z" fill="#fff"/><path d="m37.3,229c0-20.5,0-36.9,0-53.3,0-13.1.3-26.3.7-39.4.2-8.9.3-17.8,1.3-26.6,2-18.7,7.9-35.5,21.9-49.2,13.2-13,28.6-20,46.7-21.5,10.6-.8,21.2-1.7,31.8-1.8,42.6-.4,85.3-.5,127.9-.6,7.9,0,15.7,0,23.5.6,12,.9,24,1.9,35.4,6.3,24.2,9.4,40.3,25.9,45.8,51.8,2.2,10.3,3.1,20.7,3.6,31.2,2.3,42.6.8,85.2,1.2,127.8,0,9.1,0,18.2-.7,27.2-.9,11.6-1.4,23.3-3.8,34.6-4.4,20.5-14.9,37.3-34.3,47.2-12.5,6.4-25.9,10.2-40,11-7.3.4-14.7.5-22,.6-15.1.2-30.2.5-45.3.6-29.2.2-58.4.6-87.5.5-10.4,0-20.8-1.1-31-2.5-8.1-1-16.1-3-24.1-4.8-8.3-1.9-15-6.9-21.5-12-8.4-6.6-15.1-14.7-19.5-24.5-4.1-9.1-6.1-18.8-7.6-28.6-4.1-26.3-1.7-52.8-2.5-75Zm64-22.9c.7,58.8,45.4,105.5,104.3,106.1,59.7.6,106-44.8,106.9-104.4.4-29.3-10-54.7-30.8-75.6-23.7-24-52.7-33.2-85.9-30.3-47.3,4.2-93.7,46.2-94.5,104.3Zm241.1-109c0-15.5-10.8-24.7-23.7-25.8-15.7-1.3-26.7,12.8-26.6,23.9.2,15.6,11.5,26.3,24.7,26.5,13.7.2,25.6-11.4,25.6-24.6Z" fill="#874dff"/><path d="m101.2,206.1c.8-58.1,47.1-100.1,94.5-104.2,33.2-2.9,62.2,6.3,85.9,30.3,20.7,20.9,31.2,46.3,30.8,75.6-.8,59.5-47.2,104.9-106.9,104.4-58.9-.6-103.6-47.2-104.3-106.1Zm174.6,1.2c1.9-40.2-32.9-68-64.2-69.6-45.1-2.2-74,34.7-73.8,69.1.2,37.7,31.9,68.8,69,68.9,39,0,69.9-31.1,69-68.4Z" fill="#fefeff"/><path d="m342.3,97.1c0,13.1-12,24.8-25.6,24.6-13.2-.2-24.5-10.9-24.7-26.5-.1-11.1,10.9-25.2,26.6-23.9,13,1.1,23.8,10.3,23.7,25.8Z" fill="#fff"/><path d="m275.8,207.3c.9,37.3-30,68.5-69,68.4-37.1,0-68.8-31.2-69-68.9-.2-34.5,28.6-71.4,73.8-69.1,31.3,1.6,66.2,29.3,64.2,69.6Z" fill="#874dff"/></svg>