<?xml version="1.0" encoding="UTF-8"?><svg id="Layer_1" xmlns="http://www.w3.org/2000/svg" viewBox="0 0 354.6 354.6"><path d="m169.4,354.3c-31.9,0-63.8.2-95.7-.1-10.8,0-21.4-1.9-31.4-6.4-13.7-6.1-24.4-15.6-32-28.5-3.7-6.3-6.1-13.1-7.8-20.3-1.6-6.9-2-13.9-2.2-21-.1-5.5-.3-11-.3-16.5,0-57.8,0-115.6,0-173.4,0-5.3,0-10.6.2-15.8.6-11.8,2.5-23.3,8-33.8C17.4,21.4,31.1,9.5,50.1,4c7.7-2.3,15.5-3.2,23.4-3.2C115.4.4,157.4.2,199.3,0c25,0,50-.2,75.1.3,9,.2,18,.4,26.8,2.7,19.7,5.2,34.6,16.5,44.4,34.4,3.8,7.1,6,14.8,7.3,22.7.7,4.6.9,9.3,1,14,.3,16.8.8,33.7.8,50.5,0,47.2,0,94.3-.1,141.5,0,7.9-.6,15.8-1.1,23.6-.5,8.1-2.6,16-5.9,23.3-6.7,14.9-17.4,26-32.1,33.3-7.7,3.8-15.8,6.1-24.4,6.9-4.5.4-9,.8-13.5.9-23.9.2-47.8.3-71.6.4-12.1,0-24.3,0-36.4,0,0,0,0-.2,0-.3Zm13.4-192.8v-19.2h-40.3v141.6h42.8v-3.1c0-23.9,0-47.8,0-71.7,0-4.1.7-8,2-11.9,3.7-11.1,13.6-18.1,26.4-17.9,4.2,0,8.5,1,12.4,2.2,5.1,1.7,8.9,5.3,11.3,10.2,2.5,4.9,3.4,10.3,3.4,15.8,0,24.5,0,49.1,0,73.6,0,.9,0,1.8.1,2.7h42.9c0-.7,0-1.1,0-1.6,0-30.1,0-60.1,0-90.2,0-3.9-.7-7.9-1.9-11.6-1.5-4.9-3.7-9.6-5.6-14.4-2-4.9-5-9.1-8.9-12.6-9.1-7.9-19.6-12.5-31.6-13.9-6.8-.8-13.6-.3-20.1,1.3-12.9,3.3-23.9,9.8-32.1,20.6-.3,0-.5,0-.8,0Zm-65.1,122.5v-141.8h-43.6v141.8h43.6Zm3-188.1c.8-15-11.5-24.2-22.8-25.2-16.2-1.4-27.3,12.5-27.2,24.8,0,13.8,11.7,25.6,24.8,25.6,13.1,0,25.8-10.1,25.3-25.2Z" fill="#fff"/><path d="m183.6,161.5c8.2-10.7,19.2-17.3,32.1-20.6,6.5-1.7,13.3-2.1,20.1-1.3,12,1.4,22.5,6,31.6,13.9,4,3.5,7,7.6,8.9,12.6,1.9,4.8,4.1,9.5,5.6,14.4,1.1,3.7,1.8,7.7,1.9,11.6.1,30.1,0,60.1,0,90.2s0,1,0,1.6h-42.9c0-.9-.1-1.8-.1-2.7,0-24.5,0-49.1,0-73.6,0-5.5-.9-10.8-3.4-15.8-2.4-4.8-6.2-8.5-11.3-10.2-4-1.3-8.3-2.2-12.4-2.2-12.8-.1-22.7,6.8-26.4,17.9-1.3,3.9-2,7.8-2,11.9,0,23.9,0,47.8,0,71.7v3.1h-42.8v-141.6h40.3v19.2c0,.2.1.4.2.7.2-.2.4-.4.6-.6Z" fill="#874dff"/><path d="m117.7,283.9h-43.6v-141.8h43.6v141.8Z" fill="#874dff"/><path d="m120.7,95.8c.5,15.1-12.2,25.2-25.3,25.2-13.1,0-24.7-11.7-24.8-25.6,0-12.3,11.1-26.2,27.2-24.8,11.3,1,23.6,10.2,22.8,25.2Z" fill="#874dff"/><path d="m183.6,161.5c-.2.2-.4.4-.5.6,0-.2-.1-.4-.2-.7.2,0,.5,0,.8,0Z" fill="#7fb2e3"/></svg>