<?xml version="1.0" encoding="utf-8"?>
<!-- Generator: Adobe Illustrator 27.7.0, SVG Export Plug-In . SVG Version: 6.00 Build 0)  -->
<svg version="1.1" id="Layer_1" xmlns="http://www.w3.org/2000/svg" xmlns:xlink="http://www.w3.org/1999/xlink" x="0px" y="0px"
	 viewBox="0 0 500 500" style="enable-background:new 0 0 500 500;" xml:space="preserve">
<style type="text/css">
	.st0{fill:#874DFF;}
	.st1{fill:#FFFFFF;}
	.st2{fill:#DDE1EE;}
	.st3{fill:#AEBAD7;}
</style>
<g>
	<path class="st0" d="M86.61,399.44c0-99.81,0-199.61,0-299.42c0.32-0.42,0.76-0.79,0.93-1.26c2.14-6.1,6.24-10.06,12.53-11.72
		c0.21-0.05,0.33-0.42,0.49-0.63c99.47,0,198.93,0,298.4,0c0.17,0.22,0.3,0.59,0.51,0.64c6.94,1.56,11.1,5.99,13.13,12.64
		c0.08,0.27,0.43,0.45,0.65,0.68c0,99.69,0,199.39,0,299.08c-0.28,0.37-0.69,0.7-0.83,1.12c-1.84,5.52-5.58,9.2-10.86,11.44
		c-0.67,0.28-1.28,0.7-1.91,1.05c-29.15,0-58.3,0-87.44,0c-0.03-0.12-0.06-0.23-0.08-0.35c0.01-0.74,0.04-1.47,0.04-2.21
		c0-40.66,0-81.31,0-121.97c0-0.66,0-1.32,0-2.15c14.19,0,28.16,0,42.18,0c2.12-16.42,4.22-32.67,6.35-49.15
		c-16.29,0-32.36,0-48.53,0c0-0.54,0-0.87,0-1.2c0-10.55-0.04-21.09,0.04-31.64c0.02-2.57,0.3-5.16,0.7-7.7
		c0.94-5.85,4.11-10.09,9.57-12.54c4.36-1.95,9.02-2.3,13.68-2.37c8.16-0.12,16.33-0.03,24.49-0.03c0.6,0,1.2,0,1.81,0
		c0-14.78,0-29.33,0-44.14c-5.94-0.39-11.81-0.79-17.69-1.17c-2.36-0.15-4.72-0.32-7.08-0.34c-6.34-0.05-12.68-0.03-19.02-0.04
		c-0.23,0.01-0.45,0.03-0.68,0.04c-0.72,0.11-1.43,0.29-2.15,0.32c-5.14,0.23-10.12,1.32-14.97,2.94
		c-17.61,5.86-29.57,17.49-35.71,35.1c-2.32,6.66-3.83,13.49-3.94,20.5c-0.22,13.44-0.08,26.88-0.09,40.31c0,0.61,0,1.22,0,2.01
		c-14.34,0-28.48,0-42.67,0c0,16.48,0,32.77,0,49.23c14.27,0,28.41,0,42.67,0c0,0.84,0,1.51,0,2.19c0,40.71,0,81.43,0,122.14
		c0,0.74,0.02,1.47,0.03,2.21c-53.65,0-107.29,0-160.94,0c-0.47-0.33-0.9-0.77-1.42-0.96c-5.52-1.97-9.26-5.7-11.23-11.23
		C87.38,400.34,86.94,399.91,86.61,399.44z"/>
	<path class="st1" d="M261.16,413.05c-0.01-0.74-0.03-1.47-0.03-2.21c0-40.71,0-81.43,0-122.14c0-0.67,0-1.34,0-2.19
		c-14.26,0-28.4,0-42.67,0c0-16.46,0-32.75,0-49.23c14.19,0,28.33,0,42.67,0c0-0.8,0-1.4,0-2.01c0.01-13.44-0.13-26.88,0.09-40.31
		c0.11-7.01,1.62-13.84,3.94-20.5c6.14-17.61,18.1-29.23,35.71-35.1c4.85-1.61,9.83-2.7,14.97-2.94c0.72-0.03,1.43-0.21,2.15-0.32
		c0.23-0.01,0.45-0.03,0.68-0.04c6.34,0.01,12.68-0.02,19.02,0.04c2.36,0.02,4.72,0.19,7.08,0.34c5.87,0.37,11.75,0.77,17.69,1.17
		c0,14.8,0,29.35,0,44.14c-0.62,0-1.21,0-1.81,0c-8.17,0-16.33-0.08-24.49,0.03c-4.66,0.07-9.33,0.41-13.68,2.37
		c-5.45,2.45-8.63,6.68-9.57,12.54c-0.41,2.54-0.69,5.13-0.7,7.7c-0.08,10.55-0.04,21.09-0.04,31.64c0,0.33,0,0.66,0,1.2
		c16.17,0,32.24,0,48.53,0c-2.13,16.48-4.23,32.74-6.35,49.15c-14.02,0-27.99,0-42.18,0c0,0.83,0,1.49,0,2.15
		c0,40.66,0,81.31,0,121.97c0,0.74-0.03,1.47-0.04,2.21c-0.09,0.12-0.17,0.23-0.26,0.35C294.96,413.05,278.06,413.05,261.16,413.05z
		"/>
	<path class="st2" d="M311.85,413.05c0.09-0.12,0.17-0.23,0.26-0.35c0.03,0.12,0.06,0.23,0.08,0.35
		C312.08,413.05,311.97,413.05,311.85,413.05z"/>
	<path class="st3" d="M318.66,136.07c-0.23,0.01-0.45,0.03-0.68,0.04C318.21,136.09,318.43,136.08,318.66,136.07z"/>
</g>
</svg>
