<?xml version="1.0" encoding="utf-8"?>
<!-- Generator: Adobe Illustrator 27.7.0, SVG Export Plug-In . SVG Version: 6.00 Build 0)  -->
<svg version="1.1" id="Layer_1" xmlns="http://www.w3.org/2000/svg" xmlns:xlink="http://www.w3.org/1999/xlink" x="0px" y="0px"
	 viewBox="0 0 500 500" style="enable-background:new 0 0 500 500;" xml:space="preserve">
<style type="text/css">
	.st0{fill:#874DFF;}
	.st1{fill:#FEFEFF;}
</style>
<g>
	<path class="st0" d="M449.81,374.99c-4.3,15.31-11.49,29.19-22.75,40.67c-5.07,5.17-9.98,10.62-15.7,14.98
		c-5.77,4.4-12.26,8-18.79,11.24c-9.73,4.84-20.11,8.14-30.84,9.89c-8.61,1.41-17.33,2.39-26.04,2.84
		c-11.76,0.61-23.56,0.64-35.34,0.73c-32.9,0.26-65.8,0.43-98.71,0.62c-4.97,0.03-9.94,0.06-14.91-0.02
		c-15.77-0.25-31.4-1.83-47-4.14c-21.69-3.2-40.56-12.28-57.18-26.26c-8.39-7.06-14.65-15.98-20.27-25.3
		c-8.49-14.1-12.65-29.76-15.51-45.76c-0.99-5.54-1.22-11.26-1.35-16.91c-0.54-23.25-0.92-46.5-1.33-69.74
		c-0.23-13.03-0.56-26.06-0.54-39.09c0.02-14.58,0.12-29.17,0.66-43.73c0.41-11.19,1.65-22.35,2.36-33.54
		c0.87-13.73,4.49-26.8,9.26-39.59c3.54-9.49,8.87-18.06,15.46-25.63c5.67-6.52,11.64-13.14,18.65-18.01
		c8.32-5.78,17.67-10.26,27-14.33c11.69-5.1,24.22-7.35,36.95-8.13c12.25-0.75,24.5-1.53,36.76-1.79
		c19.85-0.43,39.71-0.59,59.56-0.61c14.57-0.02,29.15,0.33,43.72,0.56c11.05,0.17,22.12,0.16,33.15,0.68
		c10.16,0.48,20.31,1.32,30.43,2.41c18.86,2.02,36.08,8.92,51.55,19.59c16.99,11.72,29.48,27.41,36.43,47
		c3.12,8.81,5.43,17.94,7.58,27.05c1.15,4.86,1.36,9.98,1.69,15c0.65,9.88,1.08,19.77,1.6,29.66c0.12,0.01,0.25,0.01,0.37,0.02
		c0,17.68-0.05,35.36,0.03,53.05c0.03,7.33,0.52,14.67,0.49,22c-0.05,11.68-0.28,23.37-0.6,35.05c-0.29,10.62-0.64,21.24-1.23,31.84
		C454.53,343.29,454.19,359.43,449.81,374.99 M80.8,272.38c0.72,22.24-1.62,48.74,2.43,75.07c1.51,9.83,3.59,19.47,7.64,28.58
		c4.37,9.84,11.01,17.97,19.46,24.53c6.53,5.07,13.26,10.04,21.52,11.95c8,1.85,16.02,3.79,24.14,4.83
		c10.29,1.31,20.68,2.39,31.03,2.45c29.17,0.15,58.35-0.25,87.52-0.5c15.1-0.13,30.2-0.38,45.29-0.63
		c7.33-0.12,14.68-0.18,21.99-0.61c14.08-0.83,27.43-4.69,39.95-11.05c19.38-9.85,29.91-26.66,34.32-47.19
		c2.42-11.29,2.98-23.03,3.83-34.61c0.67-9.05,0.76-18.17,0.68-27.25c-0.36-42.62,1.1-85.25-1.16-127.85
		c-0.56-10.5-1.42-20.91-3.62-31.24c-5.54-25.99-21.62-42.49-45.84-51.85c-11.39-4.4-23.43-5.45-35.44-6.34
		c-7.82-0.58-15.69-0.66-23.54-0.63c-42.64,0.13-85.27,0.26-127.91,0.64c-10.59,0.09-21.19,0.95-31.76,1.79
		c-18.15,1.44-33.53,8.46-46.71,21.48c-13.93,13.76-19.84,30.57-21.88,49.23c-0.96,8.8-1.04,17.7-1.27,26.57
		c-0.35,13.12-0.58,26.25-0.67,39.38C80.71,235.47,80.8,251.84,80.8,272.38z"/>
	<path class="st1" d="M80.8,272.38c0-20.54-0.08-36.91,0.03-53.27c0.09-13.13,0.32-26.26,0.67-39.38
		c0.23-8.86,0.31-17.77,1.27-26.57c2.04-18.66,7.94-35.47,21.88-49.23c13.18-13.02,28.56-20.04,46.71-21.48
		c10.57-0.84,21.17-1.69,31.76-1.79c42.63-0.38,85.27-0.51,127.91-0.64c7.85-0.02,15.72,0.05,23.54,0.63
		c12.01,0.89,24.05,1.94,35.44,6.34c24.22,9.36,40.3,25.86,45.84,51.85c2.2,10.33,3.06,20.73,3.62,31.24
		c2.26,42.6,0.8,85.24,1.16,127.85c0.08,9.08-0.01,18.2-0.68,27.25c-0.86,11.58-1.41,23.31-3.83,34.61
		c-4.41,20.53-14.94,37.34-34.32,47.19c-12.52,6.37-25.87,10.22-39.95,11.05c-7.32,0.43-14.66,0.49-21.99,0.61
		c-15.1,0.25-30.19,0.5-45.29,0.63c-29.17,0.25-58.35,0.65-87.52,0.5c-10.35-0.05-20.75-1.13-31.03-2.45
		c-8.12-1.04-16.15-2.98-24.14-4.83c-8.26-1.91-14.99-6.88-21.52-11.95c-8.45-6.56-15.1-14.69-19.46-24.53
		c-4.05-9.12-6.13-18.75-7.64-28.58C79.18,321.13,81.52,294.62,80.8,272.38z M144.79,249.49c0.66,58.85,45.41,105.5,104.29,106.06
		c59.71,0.57,106.04-44.84,106.87-104.36c0.41-29.34-10.05-54.68-30.75-75.62c-23.72-24-52.7-33.25-85.91-30.33
		C191.94,149.39,145.61,191.44,144.79,249.49z M385.87,140.49c0.04-15.52-10.77-24.72-23.73-25.79
		c-15.68-1.29-26.74,12.77-26.6,23.9c0.2,15.56,11.47,26.28,24.72,26.47C373.91,165.27,385.86,153.64,385.87,140.49z"/>
	<path class="st0" d="M144.79,249.49c0.82-58.05,47.14-100.1,94.5-104.25c33.21-2.91,62.19,6.33,85.91,30.33
		c20.7,20.94,31.16,46.28,30.75,75.62c-0.82,59.52-47.16,104.93-106.87,104.36C190.21,354.99,145.46,308.34,144.79,249.49z
		 M319.39,250.72c1.91-40.24-32.89-68.01-64.25-69.57c-45.15-2.24-73.98,34.67-73.77,69.14c0.24,37.69,31.85,68.85,68.99,68.87
		C289.36,319.18,320.3,288.03,319.39,250.72z"/>
	<path class="st0" d="M385.87,140.49c-0.01,13.15-11.96,24.78-25.6,24.58c-13.25-0.19-24.53-10.91-24.72-26.47
		c-0.14-11.13,10.91-25.19,26.6-23.9C375.1,115.77,385.91,124.97,385.87,140.49z"/>
	<path class="st1" d="M319.39,250.72c0.92,37.31-30.03,68.46-69.03,68.44c-37.14-0.02-68.75-31.18-68.99-68.87
		c-0.22-34.47,28.62-71.38,73.77-69.14C286.49,182.71,321.3,210.48,319.39,250.72z"/>
</g>
</svg>
