<?xml version="1.0" encoding="utf-8"?>
<!-- Generator: Adobe Illustrator 27.7.0, SVG Export Plug-In . SVG Version: 6.00 Build 0)  -->
<svg version="1.1" id="Layer_1" xmlns="http://www.w3.org/2000/svg" xmlns:xlink="http://www.w3.org/1999/xlink" x="0px" y="0px"
	 viewBox="0 0 500 500" style="enable-background:new 0 0 500 500;" xml:space="preserve">
<style type="text/css">
	.st0{fill:#874DFF;}
	.st1{fill:#FFFFFF;}
	.st2{fill:#FEFEFF;}
	.st3{fill:#7FB2E3;}
</style>
<g>
	<path class="st0" d="M242,426.74c-31.9,0-63.79,0.18-95.69-0.1c-10.78-0.09-21.41-1.9-31.45-6.36
		c-13.73-6.1-24.37-15.58-31.97-28.51c-3.72-6.32-6.13-13.11-7.78-20.26c-1.6-6.93-2.02-13.92-2.17-20.97
		c-0.11-5.49-0.34-10.97-0.34-16.46c0.01-57.8,0.05-115.6,0.1-173.4c0-5.27-0.03-10.55,0.22-15.82c0.56-11.75,2.52-23.35,8.04-33.79
		c9.07-17.16,22.76-29.06,41.71-34.62c7.7-2.26,15.51-3.18,23.43-3.23c41.94-0.31,83.88-0.55,125.82-0.69
		c25.02-0.08,50.05-0.15,75.06,0.27c8.95,0.15,17.99,0.37,26.81,2.68c19.71,5.18,34.64,16.47,44.37,34.44
		c3.84,7.09,6.03,14.79,7.28,22.69c0.73,4.6,0.87,9.31,0.97,13.98c0.34,16.84,0.75,33.67,0.78,50.51
		c0.07,47.17,0.02,94.34-0.12,141.5c-0.02,7.87-0.61,15.75-1.13,23.61c-0.54,8.12-2.59,15.95-5.9,23.34
		c-6.68,14.89-17.42,26.05-32.07,33.29c-7.68,3.8-15.84,6.14-24.39,6.93c-4.49,0.42-9.01,0.83-13.52,0.87
		c-23.87,0.2-47.75,0.29-71.62,0.38c-12.15,0.05-24.3,0.01-36.45,0.01C242,426.94,242,426.84,242,426.74z M255.43,233.92
		c0-6.43,0-12.85,0-19.25c-13.73,0-27.03,0-40.31,0c0,47.33,0,94.45,0,141.64c14.31,0,28.48,0,42.8,0c0-1.16,0-2.11,0-3.06
		c0-23.9,0.04-47.8-0.03-71.7c-0.01-4.11,0.71-8.03,2-11.87c3.73-11.14,13.62-18.06,26.44-17.91c4.16,0.05,8.45,0.96,12.43,2.25
		c5.11,1.66,8.9,5.34,11.31,10.18c2.46,4.94,3.37,10.28,3.36,15.79c-0.03,24.54-0.05,49.08-0.06,73.62c0,0.92,0.09,1.83,0.14,2.73
		c14.45,0,28.63,0,42.85,0c0.04-0.67,0.09-1.15,0.09-1.62c0-30.06,0.07-60.11-0.08-90.17c-0.02-3.88-0.73-7.87-1.86-11.59
		c-1.49-4.91-3.72-9.6-5.62-14.39c-1.95-4.92-4.98-9.1-8.94-12.56c-9.06-7.91-19.61-12.54-31.57-13.92
		c-6.79-0.78-13.61-0.34-20.12,1.33c-12.85,3.29-23.87,9.8-32.06,20.55C255.93,233.93,255.68,233.92,255.43,233.92z M190.33,356.4
		c0-47.45,0-94.63,0-141.79c-14.62,0-29.05,0-43.56,0c0,47.32,0,94.5,0,141.79C161.35,356.4,175.78,356.4,190.33,356.4z
		 M193.34,168.31c0.76-15-11.52-24.23-22.82-25.17c-16.17-1.35-27.29,12.5-27.25,24.82c0.05,13.84,11.71,25.55,24.77,25.57
		C181.16,193.55,193.83,183.44,193.34,168.31z"/>
	<path class="st1" d="M256.18,233.94c8.19-10.74,19.21-17.26,32.06-20.55c6.51-1.67,13.33-2.11,20.12-1.33
		c11.96,1.38,22.51,6,31.57,13.92c3.96,3.46,6.99,7.63,8.94,12.56c1.9,4.79,4.12,9.48,5.62,14.39c1.13,3.72,1.84,7.71,1.86,11.59
		c0.15,30.06,0.08,60.11,0.08,90.17c0,0.47-0.05,0.95-0.09,1.62c-14.22,0-28.39,0-42.85,0c-0.05-0.89-0.14-1.81-0.14-2.73
		c0.01-24.54,0.03-49.08,0.06-73.62c0.01-5.51-0.91-10.84-3.36-15.79c-2.41-4.84-6.2-8.51-11.31-10.18
		c-3.98-1.29-8.27-2.21-12.43-2.25c-12.82-0.14-22.71,6.77-26.44,17.91c-1.29,3.85-2.01,7.76-2,11.87c0.07,23.9,0.03,47.8,0.03,71.7
		c0,0.95,0,1.9,0,3.06c-14.32,0-28.49,0-42.8,0c0-47.19,0-94.31,0-141.64c13.28,0,26.58,0,40.31,0c0,6.4,0,12.82,0,19.25
		c0.07,0.22,0.15,0.45,0.22,0.67C255.83,234.37,256.01,234.16,256.18,233.94z"/>
	<path class="st1" d="M190.33,356.4c-14.56,0-28.98,0-43.56,0c0-47.29,0-94.46,0-141.79c14.51,0,28.94,0,43.56,0
		C190.33,261.77,190.33,308.95,190.33,356.4z"/>
	<path class="st2" d="M193.34,168.31c0.49,15.13-12.18,25.23-25.3,25.22c-13.06-0.02-24.72-11.73-24.77-25.57
		c-0.05-12.32,11.07-26.17,27.25-24.82C181.82,144.09,194.1,153.31,193.34,168.31z"/>
	<path class="st3" d="M256.18,233.94c-0.18,0.22-0.36,0.43-0.53,0.65c-0.07-0.22-0.15-0.45-0.22-0.67
		C255.68,233.92,255.93,233.93,256.18,233.94z"/>
</g>
</svg>
